#!OML:ASF F:\twosubjects\two\wednesday\Session 1\rory1.ASF
:FULLY-SPECIFIED
:DEGREES
100
root 17.3927 18.6022 7.41272 -173.677 1.35898 184.129
lowerback 2.23 2.22319 3.12751
upperback 0.879873 3.08281 1.00786
thorax -0.238174 1.56631 -0.787602
lowerneck -13.5632 -2.4817 -3.44919
upperneck 12.3518 -2.61565 -0.992024
head 6.00359 -1.54572 0.004133
rclavicle 2.51711e-014 1.61016e-014
rhumerus -30.5031 -10.5748 -79.7318
rradius 33.2763
rwrist 2.28141
rhand -15.3855 33.5739
rfingers 7.12502
rthumb 10.793 3.8712
lclavicle 2.51711e-014 1.61016e-014
lhumerus -42.9605 15.0203 77.9533
lradius 22.6906
lwrist -2.16543
lhand -24.1708 25.9241
lfingers 7.12502
lthumb 2.31237 55.8913
rfemur -3.19761 6.14712 29.3006
rtibia 21.8029
rfoot -15.3559 -4.06094
rtoes 13.5424
lfemur -34.2751 -2.4134 -14.0899
ltibia 35.9349
lfoot -9.03762 2.98407
ltoes -19.1686
101
root 17.3953 18.5998 7.26208 -173.608 1.50591 184.175
lowerback 2.25645 2.32182 3.24068
upperback 0.891495 3.21416 0.884847
thorax -0.222857 1.6316 -0.979433
lowerneck -13.3893 -2.58073 -3.41523
upperneck 12.0965 -2.77767 -0.867611
head 5.89623 -1.60662 0.0280215
rclavicle -1.23153e-015 -5.0131e-015
rhumerus -30.4778 -10.4532 -79.9375
rradius 33.677
rwrist 1.88631
rhand -15.1668 33.974
rfingers 7.12502
rthumb 11.0039 4.28241
lclavicle -1.23153e-015 -5.0131e-015
lhumerus -42.8492 14.4978 78.1248
lradius 22.6894
lwrist -2.07763
lhand -23.6942 25.5046
lfingers 7.12502
lthumb 2.77267 55.4663
rfemur -2.37413 6.14245 29.3704
rtibia 21.0937
rfoot -15.0694 -3.98749
rtoes 12.3572
lfemur -34.1376 -2.58947 -13.9781
ltibia 33.3619
lfoot -8.91346 3.52354
ltoes -22.1162
102
root 17.3961 18.5985 7.10753 -173.467 1.66369 184.147
lowerback 2.1594 2.37973 3.18485
upperback 0.870512 3.28352 0.835546
thorax -0.187461 1.66531 -0.995981
lowerneck -13.3507 -2.59743 -3.40489
upperneck 12.1153 -2.80525 -0.864291
head 5.89588 -1.61979 0.0252556
rclavicle -1.6145e-014 -9.39258e-015
rhumerus -30.4423 -10.0255 -80.1323
rradius 34.1352
rwrist 1.29172
rhand -15.2819 33.6421
rfingers 7.12502
rthumb 10.8928 3.94458
lclavicle -1.6145e-014 -9.39258e-015
lhumerus -42.8259 14.6681 78.0517
lradius 22.6219
lwrist -2.04865
lhand -23.7388 25.1895
lfingers 7.12502
lthumb 2.72964 55.1518
rfemur -1.63013 5.9226 29.3209
rtibia 20.4123
rfoot -14.8106 -3.77643
rtoes 11.021
lfemur -33.9603 -2.91508 -13.8616
ltibia 30.7561
lfoot -8.90052 3.92588
ltoes -21.2428
103
root 17.3994 18.6039 6.95362 -173.299 1.82976 184.339
lowerback 2.09734 2.41215 3.22615
upperback 0.833519 3.32771 0.909441
thorax -0.190982 1.68753 -0.942285
lowerneck -13.3969 -2.52004 -3.41197
upperneck 12.1501 -2.68999 -0.922089
head 5.91272 -1.56992 0.0175487
rclavicle 4.70374e-014 -4.75841e-015
rhumerus -30.3753 -9.62045 -80.3093
rradius 34.6213
rwrist 1.09656
rhand -15.3882 32.6932
rfingers 7.12502
rthumb 10.7903 2.99038
lclavicle 4.70374e-014 -4.75841e-015
lhumerus -42.9423 14.829 78.1629
lradius 22.7692
lwrist -1.85398
lhand -24.4025 24.9769
lfingers 7.12502
lthumb 2.08865 54.9464
rfemur -0.93517 5.85116 29.521
rtibia 19.7072
rfoot -14.4743 -3.54149
rtoes 11.0602
lfemur -33.821 -3.34155 -13.4011
ltibia 28.1983
lfoot -8.78148 4.3876
ltoes -19.4076
104
root 17.4039 18.6123 6.8005 -173.198 2.07604 184.475
lowerback 2.09787 2.50255 3.25922
upperback 0.822569 3.44916 0.906598
thorax -0.195533 1.74811 -0.965871
lowerneck -13.3124 -2.49891 -3.43325
upperneck 11.9773 -2.66547 -0.877186
head 5.84438 -1.55191 0.0400339
rclavicle 4.18939e-014 1.74185e-014
rhumerus -30.2919 -9.53571 -80.4079
rradius 34.7823
rwrist 1.25024
rhand -15.5298 32.9899
rfingers 7.12502
rthumb 10.6538 3.28001
lclavicle 4.18939e-014 1.74185e-014
lhumerus -43.0426 14.4878 78.4141
lradius 23.0872
lwrist -1.83301
lhand -23.908 24.479
lfingers 7.12502
lthumb 2.5662 54.4433
rfemur -0.12465 6.07486 29.6847
rtibia 18.9326
rfoot -14.0835 -3.4238
rtoes 11.9207
lfemur -33.6569 -3.76661 -12.9661
ltibia 25.7354
lfoot -8.67065 5.04725
ltoes -19.6369
105
root 17.403 18.6161 6.64602 -173.029 2.30332 184.448
lowerback 1.92978 2.60952 3.20802
upperback 0.836869 3.58079 0.854683
thorax -0.0812713 1.81466 -0.983249
lowerneck -13.185 -2.53192 -3.49456
upperneck 11.6802 -2.71169 -0.800442
head 5.7316 -1.56512 0.0742585
rclavicle -3.88251e-015 2.6339e-015
rhumerus -30.1049 -9.57697 -80.3739
rradius 34.569
rwrist 1.26172
rhand -15.3366 34.5164
rfingers 7.12502
rthumb 10.84 4.81613
lclavicle -3.88251e-015 2.6339e-015
lhumerus -42.9859 14.3105 78.5645
lradius 23.2558
lwrist -1.69551
lhand -23.1682 23.8347
lfingers 7.12502
lthumb 3.28068 53.7892
rfemur 0.656189 5.85284 29.5904
rtibia 18.0977
rfoot -13.6761 -3.07658
rtoes 11.0303
lfemur -33.569 -4.2967 -12.6825
ltibia 23.3748
lfoot -8.8115 5.73035
ltoes -19.8824
106
root 17.4028 18.6151 6.49012 -172.829 2.49111 184.457
lowerback 1.75968 2.74272 3.16028
upperback 0.800015 3.74753 0.790637
thorax -0.0158699 1.897 -1.01619
lowerneck -12.9141 -2.58408 -3.34274
upperneck 11.3255 -2.81313 -0.85907
head 5.57248 -1.60577 0.0292027
rclavicle -9.03228e-015 -7.05686e-015
rhumerus -30.089 -9.63612 -80.3907
rradius 34.6474
rwrist 1.01243
rhand -14.9329 34.9157
rfingers 7.12502
rthumb 11.2294 5.23622
lclavicle -9.03228e-015 -7.05686e-015
lhumerus -42.8908 14.1971 78.636
lradius 23.3026
lwrist -1.4487
lhand -23.407 24.1536
lfingers 7.12502
lthumb 3.05009 54.1115
rfemur 1.43162 5.49015 29.518
rtibia 17.2036
rfoot -13.2083 -2.68072
rtoes 9.65781
lfemur -33.5384 -4.97178 -12.2814
ltibia 21.1873
lfoot -9.15182 6.46268
ltoes -19.0616
107
root 17.4033 18.6153 6.33322 -172.744 2.62579 184.534
lowerback 1.83286 2.83092 3.20887
upperback 0.691188 3.86664 0.691105
thorax -0.153358 1.95187 -1.15383
lowerneck -12.5456 -2.6083 -3.06913
upperneck 11.0059 -2.90094 -0.930682
head 5.40594 -1.63659 -0.0367484
rclavicle -2.85256e-014 -8.34896e-015
rhumerus -30.3018 -9.53314 -80.624
rradius 35.0909
rwrist 0.720191
rhand -15.3766 33.7635
rfingers 7.12502
rthumb 10.8016 4.06129
lclavicle -2.85256e-014 -8.34896e-015
lhumerus -42.9414 13.8816 78.643
lradius 23.424
lwrist -1.14458
lhand -23.877 24.9454
lfingers 7.12502
lthumb 2.59617 54.9093
rfemur 2.35445 5.43202 29.5829
rtibia 16.2736
rfoot -12.5934 -2.49054
rtoes 9.58337
lfemur -33.4323 -5.79716 -11.7293
ltibia 19.2347
lfoot -9.35967 7.35114
ltoes -18.2658
108
root 17.4004 18.614 6.1715 -172.6 2.71326 184.719
lowerback 1.76311 2.75797 3.31749
upperback 0.708862 3.77046 0.747802
thorax -0.0972371 1.9059 -1.1505
lowerneck -12.7559 -2.53443 -3.08438
upperneck 10.9335 -2.78488 -0.947525
head 5.4172 -1.57996 -0.0319937
rclavicle -3.30852e-014 6.95746e-015
rhumerus -30.1696 -8.96077 -80.9153
rradius 35.466
rwrist 0.391885
rhand -15.957 32.476
rfingers 7.12502
rthumb 10.2417 2.74529
lclavicle -3.30852e-014 6.95746e-015
lhumerus -42.8975 13.7266 78.9277
lradius 23.6681
lwrist -0.631731
lhand -23.7992 25.4605
lfingers 7.12502
lthumb 2.67132 55.4235
rfemur 3.17958 5.37278 29.7586
rtibia 15.4083
rfoot -11.9322 -2.32952
rtoes 8.84001
lfemur -33.3926 -6.75456 -10.9917
ltibia 17.4812
lfoot -9.30549 8.41466
ltoes -19.301
109
root 17.3986 18.6072 6.00528 -172.535 2.78286 184.978
lowerback 1.65422 2.65479 3.4782
upperback 0.825506 3.63479 0.869158
thorax 0.0793474 1.84501 -1.10452
lowerneck -13.0726 -2.42616 -3.14467
upperneck 10.9355 -2.6064 -0.996185
head 5.46916 -1.4989 -0.0265649
rclavicle 9.44227e-016 8.54774e-015
rhumerus -29.8837 -8.55649 -81.0055
rradius 35.4375
rwrist 0.30944
rhand -15.6023 32.7331
rfingers 7.12502
rthumb 10.5838 3.01965
lclavicle 9.44227e-016 8.54774e-015
lhumerus -42.7652 13.6621 79.3156
lradius 23.9112
lwrist -0.198445
lhand -23.3818 26.2664
lfingers 7.12502
lthumb 3.07443 56.2239
rfemur 4.05416 5.29377 30.0257
rtibia 14.6072
rfoot -11.3966 -2.18713
rtoes 7.84127
lfemur -33.3013 -7.56491 -10.2645
ltibia 15.997
lfoot -9.52627 9.36879
ltoes -20.6448
110
root 17.3953 18.6019 5.83934 -172.565 2.85152 185.014
lowerback 1.72719 2.62724 3.52083
upperback 0.8085 3.60068 0.814733
thorax 0.0257442 1.82655 -1.18783
lowerneck -12.9481 -2.36166 -3.06073
upperneck 10.8107 -2.54499 -0.946954
head 5.40797 -1.45918 -0.0167227
rclavicle -3.55576e-014 -3.97569e-016
rhumerus -29.8933 -8.58774 -81.0201
rradius 35.238
rwrist 0.3816
rhand -14.9355 33.8908
rfingers 7.12502
rthumb 11.2269 4.2112
lclavicle -3.55576e-014 -3.97569e-016
lhumerus -42.7644 13.4658 79.4235
lradius 24.0123
lwrist 0.182203
lhand -23.7176 27.2928
lfingers 7.12502
lthumb 2.75005 57.2548
rfemur 5.0492 5.06756 30.0335
rtibia 13.801
rfoot -11.0013 -1.96625
rtoes 6.84157
lfemur -33.2094 -8.29674 -9.87604
ltibia 14.8982
lfoot -10.1852 10.2977
ltoes -20.2481
111
root 17.3911 18.5947 5.67444 -172.496 2.92511 184.903
lowerback 1.77069 2.57649 3.41063
upperback 0.807527 3.52932 0.716607
thorax -0.00330742 1.78882 -1.22851
lowerneck -13.1612 -2.30329 -3.10601
upperneck 10.7288 -2.46608 -0.773979
head 5.41955 -1.40665 0.049757
rclavicle -4.09496e-014 4.37326e-015
rhumerus -29.7922 -8.46586 -81.2043
rradius 35.241
rwrist 0.373033
rhand -14.5755 34.4084
rfingers 7.12502
rthumb 11.5741 4.74796
lclavicle -4.09496e-014 4.37326e-015
lhumerus -42.6035 13.5693 79.3857
lradius 23.9434
lwrist 0.236092
lhand -23.9996 27.0861
lfingers 7.12502
lthumb 2.47775 57.0514
rfemur 5.90122 4.7942 29.8567
rtibia 13.0708
rfoot -10.7152 -1.59818
rtoes 5.60434
lfemur -33.2484 -9.02466 -9.64243
ltibia 14.0891
lfoot -10.918 11.2682
ltoes -18.9965
112
root 17.39 18.58 5.50985 -172.42 2.97549 184.806
lowerback 1.71096 2.52946 3.2179
upperback 0.929126 3.45846 0.678807
thorax 0.142428 1.75646 -1.15256
lowerneck -13.5736 -2.26393 -3.19859
upperneck 10.6626 -2.3835 -0.701664
head 5.46842 -1.36245 0.0902537
rclavicle 3.16813e-014 5.46658e-015
rhumerus -29.5498 -8.22125 -81.3851
rradius 35.2421
rwrist 0.472787
rhand -14.6658 34.3287
rfingers 7.12502
rthumb 11.487 4.66342
lclavicle 3.16813e-014 5.46658e-015
lhumerus -42.3197 13.7934 79.438
lradius 23.9669
lwrist 0.0603583
lhand -23.7162 25.1016
lfingers 7.12502
lthumb 2.75142 55.0636
rfemur 6.67609 4.84959 29.7292
rtibia 12.4396
rfoot -10.4233 -1.28629
rtoes 4.34867
lfemur -33.3243 -9.57303 -9.48718
ltibia 13.577
lfoot -11.4739 11.9112
ltoes -17.8135
113
root 17.3855 18.5641 5.34352 -172.33 3.00322 184.733
lowerback 1.40746 2.54858 2.92511
upperback 1.07478 3.46747 0.746587
thorax 0.440226 1.76567 -0.9009
lowerneck -13.3965 -2.32014 -3.30662
upperneck 10.1653 -2.45287 -0.654745
head 5.28579 -1.38993 0.121938
rclavicle -1.68222e-014 -1.2921e-015
rhumerus -29.4797 -8.04129 -81.3032
rradius 35.312
rwrist 0.446417
rhand -15.0308 34.1315
rfingers 7.12502
rthumb 11.135 4.44695
lclavicle -1.68222e-014 -1.2921e-015
lhumerus -42.1147 13.8566 79.6553
lradius 24.1215
lwrist -0.275732
lhand -31.3984 4.01843
lfingers 7.12502
lthumb -4.66785 33.947
rfemur 7.50632 5.0109 29.6333
rtibia 11.7194
rfoot -9.91278 -1.12482
rtoes 2.1473
lfemur -33.56 -9.78267 -9.50831
ltibia 13.5437
lfoot -11.9003 12.231
ltoes -17.1335
